<svg xmlns="http://www.w3.org/2000/svg" version="1.1" xmlns:xlink="http://www.w3.org/1999/xlink" xmlns:svgjs="http://svgjs.com/svgjs" width="256" height="256" x="0" y="0" viewBox="0 0 24 24" style="enable-background:new 0 0 512 512" xml:space="preserve"><g><path d="M24 14.214 22 3H3a3 3 0 0 0-3 3v9a3 3 0 0 0 3 3h4.712l1.914 3.879a3.038 3.038 0 0 0 5.721-1.838L15.011 18H24ZM2 15V6a1 1 0 0 1 1-1h4v11H3a1 1 0 0 1-1-1Zm20 1h-9.345l.719 4.365a1.024 1.024 0 0 1-.233.84 1.071 1.071 0 0 1-1.722-.212L9 16.091V5h11.33L22 14.3Z" data-name="01 align center" fill="#ffffff" data-original="#000000"></path></g></svg>